<svg width="70" height="70" viewBox="0 0 70 70" fill="none" xmlns="http://www.w3.org/2000/svg">
<path d="M27.7083 8.75C32.7364 8.75 37.5585 10.7474 41.1139 14.3028C44.6693 17.8581 46.6667 22.6803 46.6667 27.7083C46.6667 32.4042 44.9458 36.7208 42.1167 40.0458L42.9042 40.8333H45.2083L59.7917 55.4167L55.4167 59.7917L40.8333 45.2083V42.9042L40.0458 42.1167C36.6058 45.0531 32.2312 46.6664 27.7083 46.6667C22.6803 46.6667 17.8581 44.6693 14.3028 41.1139C10.7474 37.5585 8.75 32.7364 8.75 27.7083C8.75 22.6803 10.7474 17.8581 14.3028 14.3028C17.8581 10.7474 22.6803 8.75 27.7083 8.75ZM27.7083 14.5833C20.4167 14.5833 14.5833 20.4167 14.5833 27.7083C14.5833 35 20.4167 40.8333 27.7083 40.8333C35 40.8333 40.8333 35 40.8333 27.7083C40.8333 20.4167 35 14.5833 27.7083 14.5833Z" fill="white"/>
</svg>
